HIERARCHY
ROOT mixamorig:Hips
{
	OFFSET -0.000008 104.274872 1.554316
	CHANNELS 6 Xposition Yposition Zposition Xrotation Yrotation Zrotation
	JOINT mixamorig:Spine
	{
		OFFSET -0.000005 10.181595 0.131519
		CHANNELS 6 Xposition Yposition Zposition Xrotation Yrotation Zrotation
		JOINT mixamorig:Spine1
		{
			OFFSET -0.000000 9.893959 -1.470707
			CHANNELS 6 Xposition Yposition Zposition Xrotation Yrotation Zrotation
			JOINT mixamorig:Spine2
			{
				OFFSET -0.000000 9.220757 -1.370641
				CHANNELS 6 Xposition Yposition Zposition Xrotation Yrotation Zrotation
				JOINT mixamorig:Neck
				{
					OFFSET 0.000001 16.740417 -2.049036
					CHANNELS 6 Xposition Yposition Zposition Xrotation Yrotation Zrotation
					JOINT mixamorig:Head
					{
						OFFSET 0.000000 9.617874 1.685006
						CHANNELS 6 Xposition Yposition Zposition Xrotation Yrotation Zrotation
						JOINT mixamorig:HeadTop_End
						{
							OFFSET 0.000002 22.037354 7.501101
							CHANNELS 6 Xposition Yposition Zposition Xrotation Yrotation Zrotation
							End Site
							{
								OFFSET 0.000168 2310.654297 -282.823242
							}
						}
					}
				}
				JOINT mixamorig:RightShoulder
				{
					OFFSET -4.569970 11.014908 -2.160885
					CHANNELS 6 Xposition Yposition Zposition Xrotation Yrotation Zrotation
					JOINT mixamorig:RightArm
					{
						OFFSET -10.592851 -0.524811 -2.232101
						CHANNELS 6 Xposition Yposition Zposition Xrotation Yrotation Zrotation
						JOINT mixamorig:RightForeArm
						{
							OFFSET -27.841511 0.000031 -0.000004
							CHANNELS 6 Xposition Yposition Zposition Xrotation Yrotation Zrotation
							JOINT mixamorig:RightHand
							{
								OFFSET -28.328831 -0.000015 0.000015
								CHANNELS 6 Xposition Yposition Zposition Xrotation Yrotation Zrotation
								JOINT mixamorig:RightHandThumb1
								{
									OFFSET -2.464806 -1.573990 2.681852
									CHANNELS 6 Xposition Yposition Zposition Xrotation Yrotation Zrotation
									JOINT mixamorig:RightHandThumb2
									{
										OFFSET -3.215179 -1.872803 1.924282
										CHANNELS 6 Xposition Yposition Zposition Xrotation Yrotation Zrotation
										JOINT mixamorig:RightHandThumb3
										{
											OFFSET -2.654831 -1.527969 1.512609
											CHANNELS 6 Xposition Yposition Zposition Xrotation Yrotation Zrotation
											JOINT mixamorig:RightHandThumb4
											{
												OFFSET -2.018814 -1.152008 1.108052
												CHANNELS 6 Xposition Yposition Zposition Xrotation Yrotation Zrotation
												End Site
												{
													OFFSET -188.809540 -114.533607 132.431396
												}
											}
										}
									}
								}
								JOINT mixamorig:RightHandIndex1
								{
									OFFSET -9.108284 -0.517868 2.259835
									CHANNELS 6 Xposition Yposition Zposition Xrotation Yrotation Zrotation
									JOINT mixamorig:RightHandIndex2
									{
										OFFSET -3.699989 0.000000 0.001215
										CHANNELS 6 Xposition Yposition Zposition Xrotation Yrotation Zrotation
										JOINT mixamorig:RightHandIndex3
										{
											OFFSET -2.850006 0.000031 -0.000522
											CHANNELS 6 Xposition Yposition Zposition Xrotation Yrotation Zrotation
											JOINT mixamorig:RightHandIndex4
											{
												OFFSET -2.772186 -0.000015 -0.000020
												CHANNELS 6 Xposition Yposition Zposition Xrotation Yrotation Zrotation
												End Site
												{
													OFFSET -277.218445 0.000000 -0.050231
												}
											}
										}
									}
								}
								JOINT mixamorig:RightHandMiddle1
								{
									OFFSET -9.532516 -0.000031 -0.000023
									CHANNELS 6 Xposition Yposition Zposition Xrotation Yrotation Zrotation
									JOINT mixamorig:RightHandMiddle2
									{
										OFFSET -3.700005 -0.000015 0.003713
										CHANNELS 6 Xposition Yposition Zposition Xrotation Yrotation Zrotation
										JOINT mixamorig:RightHandMiddle3
										{
											OFFSET -2.949974 0.000015 -0.002054
											CHANNELS 6 Xposition Yposition Zposition Xrotation Yrotation Zrotation
											JOINT mixamorig:RightHandMiddle4
											{
												OFFSET -2.946640 0.000000 -0.000156
												CHANNELS 6 Xposition Yposition Zposition Xrotation Yrotation Zrotation
												End Site
												{
													OFFSET -294.664337 0.000000 -0.113670
												}
											}
										}
									}
								}
								JOINT mixamorig:RightHandRing1
								{
									OFFSET -9.103600 -0.043076 -1.865134
									CHANNELS 6 Xposition Yposition Zposition Xrotation Yrotation Zrotation
									JOINT mixamorig:RightHandRing2
									{
										OFFSET -3.379288 0.000000 -0.001055
										CHANNELS 6 Xposition Yposition Zposition Xrotation Yrotation Zrotation
										JOINT mixamorig:RightHandRing3
										{
											OFFSET -2.889687 -0.000015 0.000379
											CHANNELS 6 Xposition Yposition Zposition Xrotation Yrotation Zrotation
											JOINT mixamorig:RightHandRing4
											{
												OFFSET -2.638809 -0.000015 0.000941
												CHANNELS 6 Xposition Yposition Zposition Xrotation Yrotation Zrotation
												End Site
												{
													OFFSET -263.880371 0.000000 0.516020
												}
											}
										}
									}
								}
								JOINT mixamorig:RightHandPinky1
								{
									OFFSET -8.076683 -0.486710 -3.806280
									CHANNELS 6 Xposition Yposition Zposition Xrotation Yrotation Zrotation
									JOINT mixamorig:RightHandPinky2
									{
										OFFSET -3.600014 -0.000015 -0.003747
										CHANNELS 6 Xposition Yposition Zposition Xrotation Yrotation Zrotation
										JOINT mixamorig:RightHandPinky3
										{
											OFFSET -2.099983 0.000000 -0.005739
											CHANNELS 6 Xposition Yposition Zposition Xrotation Yrotation Zrotation
											JOINT mixamorig:RightHandPinky4
											{
												OFFSET -2.115768 -0.000031 -0.003680
												CHANNELS 6 Xposition Yposition Zposition Xrotation Yrotation Zrotation
												End Site
												{
													OFFSET -211.577087 0.000000 -0.350686
												}
											}
										}
									}
								}
							}
						}
					}
				}
				JOINT mixamorig:LeftShoulder
				{
					OFFSET 4.570447 11.014725 -2.160855
					CHANNELS 6 Xposition Yposition Zposition Xrotation Yrotation Zrotation
					JOINT mixamorig:LeftArm
					{
						OFFSET 10.592371 -0.524597 -2.232119
						CHANNELS 6 Xposition Yposition Zposition Xrotation Yrotation Zrotation
						JOINT mixamorig:LeftForeArm
						{
							OFFSET 27.841532 -0.000031 0.000026
							CHANNELS 6 Xposition Yposition Zposition Xrotation Yrotation Zrotation
							JOINT mixamorig:LeftHand
							{
								OFFSET 28.328846 -0.000061 0.000022
								CHANNELS 6 Xposition Yposition Zposition Xrotation Yrotation Zrotation
								JOINT mixamorig:LeftHandThumb1
								{
									OFFSET 2.466141 -1.576172 2.681732
									CHANNELS 6 Xposition Yposition Zposition Xrotation Yrotation Zrotation
									JOINT mixamorig:LeftHandThumb2
									{
										OFFSET 3.217812 -1.872070 1.916482
										CHANNELS 6 Xposition Yposition Zposition Xrotation Yrotation Zrotation
										JOINT mixamorig:LeftHandThumb3
										{
											OFFSET 2.656029 -1.528778 1.514513
											CHANNELS 6 Xposition Yposition Zposition Xrotation Yrotation Zrotation
											JOINT mixamorig:LeftHandThumb4
											{
												OFFSET 2.020889 -1.154053 1.115139
												CHANNELS 6 Xposition Yposition Zposition Xrotation Yrotation Zrotation
												End Site
												{
													OFFSET 190.885437 -115.081749 130.048782
												}
											}
										}
									}
								}
								JOINT mixamorig:LeftHandIndex1
								{
									OFFSET 9.109314 -0.518021 2.259871
									CHANNELS 6 Xposition Yposition Zposition Xrotation Yrotation Zrotation
									JOINT mixamorig:LeftHandIndex2
									{
										OFFSET 3.699989 0.000000 -0.000322
										CHANNELS 6 Xposition Yposition Zposition Xrotation Yrotation Zrotation
										JOINT mixamorig:LeftHandIndex3
										{
											OFFSET 2.850006 0.000000 0.000352
											CHANNELS 6 Xposition Yposition Zposition Xrotation Yrotation Zrotation
											JOINT mixamorig:LeftHandIndex4
											{
												OFFSET 2.774864 -0.000031 -0.000027
												CHANNELS 6 Xposition Yposition Zposition Xrotation Yrotation Zrotation
												End Site
												{
													OFFSET 277.486267 0.000000 -0.009857
												}
											}
										}
									}
								}
								JOINT mixamorig:LeftHandMiddle1
								{
									OFFSET 9.533394 0.000061 0.000044
									CHANNELS 6 Xposition Yposition Zposition Xrotation Yrotation Zrotation
									JOINT mixamorig:LeftHandMiddle2
									{
										OFFSET 3.699989 -0.000015 -0.000231
										CHANNELS 6 Xposition Yposition Zposition Xrotation Yrotation Zrotation
										JOINT mixamorig:LeftHandMiddle3
										{
											OFFSET 2.949997 -0.000015 -0.000059
											CHANNELS 6 Xposition Yposition Zposition Xrotation Yrotation Zrotation
											JOINT mixamorig:LeftHandMiddle4
											{
												OFFSET 2.952896 0.000031 0.000063
												CHANNELS 6 Xposition Yposition Zposition Xrotation Yrotation Zrotation
												End Site
												{
													OFFSET 295.289337 0.000000 0.022810
												}
											}
										}
									}
								}
								JOINT mixamorig:LeftHandRing1
								{
									OFFSET 9.104523 -0.042999 -1.865074
									CHANNELS 6 Xposition Yposition Zposition Xrotation Yrotation Zrotation
									JOINT mixamorig:LeftHandRing2
									{
										OFFSET 3.150009 -0.000031 0.000043
										CHANNELS 6 Xposition Yposition Zposition Xrotation Yrotation Zrotation
										JOINT mixamorig:LeftHandRing3
										{
											OFFSET 2.949982 -0.000015 0.000040
											CHANNELS 6 Xposition Yposition Zposition Xrotation Yrotation Zrotation
											JOINT mixamorig:LeftHandRing4
											{
												OFFSET 2.644348 0.000000 0.000057
												CHANNELS 6 Xposition Yposition Zposition Xrotation Yrotation Zrotation
												End Site
												{
													OFFSET 264.434631 0.000000 0.012105
												}
											}
										}
									}
								}
								JOINT mixamorig:LeftHandPinky1
								{
									OFFSET 8.077789 -0.486847 -3.806259
									CHANNELS 6 Xposition Yposition Zposition Xrotation Yrotation Zrotation
									JOINT mixamorig:LeftHandPinky2
									{
										OFFSET 3.599953 0.000031 0.014727
										CHANNELS 6 Xposition Yposition Zposition Xrotation Yrotation Zrotation
										JOINT mixamorig:LeftHandPinky3
										{
											OFFSET 2.100021 0.000015 0.007705
											CHANNELS 6 Xposition Yposition Zposition Xrotation Yrotation Zrotation
											JOINT mixamorig:LeftHandPinky4
											{
												OFFSET 2.125504 0.000031 0.007517
												CHANNELS 6 Xposition Yposition Zposition Xrotation Yrotation Zrotation
												End Site
												{
													OFFSET 212.550781 0.000000 0.625752
												}
											}
										}
									}
								}
							}
						}
					}
				}
			}
		}
	}
	JOINT mixamorig:RightUpLeg
	{
		OFFSET -8.207787 -6.751648 -1.599560
		CHANNELS 6 Xposition Yposition Zposition Xrotation Yrotation Zrotation
		JOINT mixamorig:RightLeg
		{
			OFFSET -0.000002 -44.370117 0.345942
			CHANNELS 6 Xposition Yposition Zposition Xrotation Yrotation Zrotation
			JOINT mixamorig:RightFoot
			{
				OFFSET 0.000003 -44.423679 -3.043532
				CHANNELS 6 Xposition Yposition Zposition Xrotation Yrotation Zrotation
				JOINT mixamorig:RightToeBase
				{
					OFFSET -0.000002 -8.728671 10.710558
					CHANNELS 6 Xposition Yposition Zposition Xrotation Yrotation Zrotation
					JOINT mixamorig:RightToe_End
					{
						OFFSET -0.000001 -0.000679 9.278119
						CHANNELS 6 Xposition Yposition Zposition Xrotation Yrotation Zrotation
						End Site
						{
							OFFSET 0.000000 -0.067690 927.812134
						}
					}
				}
			}
		}
	}
	JOINT mixamorig:LeftUpLeg
	{
		OFFSET 8.207793 -6.751686 -1.599556
		CHANNELS 6 Xposition Yposition Zposition Xrotation Yrotation Zrotation
		JOINT mixamorig:LeftLeg
		{
			OFFSET -0.000004 -44.370014 0.346954
			CHANNELS 6 Xposition Yposition Zposition Xrotation Yrotation Zrotation
			JOINT mixamorig:LeftFoot
			{
				OFFSET -0.000001 -44.423672 -3.044401
				CHANNELS 6 Xposition Yposition Zposition Xrotation Yrotation Zrotation
				JOINT mixamorig:LeftToeBase
				{
					OFFSET -0.000002 -8.728669 10.710558
					CHANNELS 6 Xposition Yposition Zposition Xrotation Yrotation Zrotation
					JOINT mixamorig:LeftToe_End
					{
						OFFSET -0.000003 -0.000679 9.278133
						CHANNELS 6 Xposition Yposition Zposition Xrotation Yrotation Zrotation
						End Site
						{
							OFFSET 0.000000 -0.068021 927.813477
						}
					}
				}
			}
		}
	}
}
MOTION
Frames: 3
Frame Time: 0.033333
0.000006 104.270477 1.554256 0.000010 0.000003 -0.000113 -0.000005 10.181587 0.131522 0.000001 -0.000003 0.000084 -0.000000 9.893967 -1.470711 0.000001 0.000000 -0.000000 -0.000000 9.220802 -1.370642 0.000000 -0.000000 -0.000000 0.000001 16.740433 -2.049030 0.000000 -0.000000 -0.000000 0.000000 9.617859 1.685014 0.000000 0.000000 0.000000 0.000002 22.037384 7.501101 0.000000 -0.000000 0.000000 -4.569968 11.014880 -2.160881 0.000008 0.000001 -0.000038 -10.592866 -0.524669 -2.232028 72.381509 6.069127 -4.442366 -27.841549 0.000021 0.000539 118.223662 57.677020 -85.257160 -28.328842 0.000022 0.000022 -0.000318 -0.000044 0.000006 -2.464468 -1.573652 2.682277 -54.770488 -178.037664 -33.746728 -3.215284 -1.872568 1.924652 152.612695 31.812265 6.928987 -2.654960 -1.527894 1.513091 147.332194 26.774664 -37.969592 -2.018831 -1.151989 1.108059 -0.000002 -0.000003 0.000004 -9.108377 -0.517546 2.260092 94.224160 13.194740 -14.243918 -3.700075 0.000328 0.001489 91.848689 11.048073 -11.384451 -2.850072 0.000375 -0.000279 93.058472 8.925911 -9.412469 -2.772163 -0.000004 -0.000017 -0.000009 -0.000002 -0.000000 -9.532563 0.000300 0.000230 95.036188 10.499118 -11.605198 -3.700051 0.000350 0.003959 94.752291 7.997057 -8.589136 -2.950030 0.000343 -0.001823 94.731138 9.095971 -9.868675 -2.946626 0.000003 -0.000155 0.000003 0.000000 0.000000 -9.103683 -0.042731 -1.864878 94.479726 11.877842 -12.791354 -3.379313 0.000324 -0.000789 97.423742 6.958571 -7.940271 -2.889755 0.000351 0.000656 99.701794 6.240515 -7.448477 -2.638822 -0.000017 0.000944 -0.000001 0.000002 -0.000001 -8.076735 -0.486368 -3.806041 88.005608 13.263018 -12.672876 -3.600047 0.000277 -0.003502 94.638159 5.908944 -6.034979 -2.100018 0.000329 -0.005488 95.171863 4.163869 -4.322422 -2.115771 -0.000042 -0.003685 0.000001 0.000004 -0.000005 4.570446 11.014691 -2.160851 -0.000018 0.000010 -0.000021 10.592358 -0.524530 -2.232293 71.589993 9.386806 -6.775939 27.841839 0.000152 -0.000210 106.286138 -58.966567 74.047802 28.328836 -0.000028 0.000017 0.000021 -0.000090 0.000001 2.465991 -1.576152 2.681908 -38.718150 157.630835 -10.165879 3.217785 -1.871716 1.916356 155.836558 -31.950761 -4.920033 2.656088 -1.528632 1.514465 143.121683 -27.150162 43.402581 2.020895 -1.154044 1.115152 0.000001 0.000006 0.000004 9.109374 -0.517834 2.259738 86.723404 -16.833368 15.897754 3.700054 0.000142 -0.000446 84.277335 -14.927402 13.535752 2.850059 0.000171 0.000202 81.376172 -12.389237 10.661638 2.774877 -0.000046 -0.000025 -0.000001 -0.000000 0.000001 9.533454 0.000233 -0.000080 87.959962 -15.273947 14.737065 3.700060 0.000181 -0.000367 90.206889 -13.006506 13.050433 2.950059 0.000180 -0.000199 89.805766 -16.360755 16.309179 2.952866 -0.000026 0.000059 -0.000000 0.000000 -0.000000 9.104589 -0.042828 -1.865232 88.340301 -14.286327 13.884277 3.150033 0.000209 -0.000092 92.442205 -11.634797 12.139785 2.950019 0.000170 -0.000079 92.724148 -13.338911 13.984276 2.644323 0.000032 0.000054 0.000001 -0.000001 0.000001 8.077847 -0.486698 -3.806413 81.782438 -16.343821 14.687202 3.600016 0.000205 0.014579 83.814672 -12.628379 11.797524 2.100051 0.000192 0.007543 85.301918 -11.825481 11.343171 2.125494 -0.000013 0.007508 0.000001 0.000002 0.000000 -8.207786 -6.751667 -1.599560 -0.077001 -0.000003 0.000080 -0.000002 -44.370110 0.345938 0.153719 -0.000000 -0.000000 0.000000 -44.423679 -3.043532 -0.076700 0.000000 -0.000002 -0.000006 -8.728667 10.710559 -0.000009 -0.000000 -0.000000 -0.000001 -0.000679 9.278123 0.000000 -0.000000 -0.000000 8.207792 -6.751710 -1.599556 -0.074518 -0.000003 0.000081 -0.000002 -44.370014 0.346960 0.148822 0.000002 0.000000 -0.000001 -44.423664 -3.044403 -0.074314 0.000000 -0.000002 -0.000004 -8.728671 10.710558 0.000007 -0.000000 -0.000000 0.000000 -0.000680 9.278137 -0.000000 0.000000 -0.000001 
0.000006 104.270477 1.554256 0.000010 0.000003 -0.000113 -0.000005 10.181587 0.131522 0.000001 -0.000003 0.000084 -0.000000 9.893967 -1.470711 0.000001 0.000000 -0.000000 -0.000000 9.220802 -1.370642 0.000000 -0.000000 -0.000000 0.000001 16.740433 -2.049030 0.000000 -0.000000 -0.000000 0.000000 9.617859 1.685014 0.000000 0.000000 0.000000 0.000002 22.037384 7.501101 0.000000 -0.000000 0.000000 -4.569968 11.014880 -2.160881 0.000008 0.000001 -0.000038 -10.592882 -0.524712 -2.231976 71.627873 15.825318 -11.454301 -27.841541 0.000012 0.000513 119.127952 60.721823 -89.827957 -28.328836 0.000005 0.000022 -0.000319 -0.000045 0.000007 -2.464458 -1.573696 2.682306 -52.604211 -174.390780 -24.678838 -3.215298 -1.872626 1.924669 154.992114 29.535722 -8.983695 -2.654938 -1.527896 1.513086 146.560410 27.008781 -37.154880 -2.018827 -1.152016 1.108068 0.000001 -0.000004 0.000005 -9.108377 -0.517551 2.260101 95.632552 16.763888 -18.521595 -3.700078 0.000310 0.001503 91.930487 14.874243 -15.353297 -2.850090 0.000369 -0.000279 91.288982 11.707104 -11.970616 -2.772177 -0.000016 -0.000021 -0.000002 0.000000 -0.000001 -9.532601 0.000264 0.000258 94.956090 16.325322 -17.934842 -3.700061 0.000323 0.003983 95.083986 13.043228 -14.138857 -2.950062 0.000341 -0.001782 97.020727 11.538613 -13.026544 -2.946612 0.000016 -0.000153 0.000002 0.000000 0.000001 -9.103704 -0.042752 -1.864870 93.824335 17.181349 -18.301029 -3.379329 0.000329 -0.000786 96.236559 9.134595 -10.201173 -2.889750 0.000351 0.000667 100.463156 6.129882 -7.416574 -2.638817 -0.000002 0.000946 0.000001 -0.000001 0.000000 -8.076759 -0.486378 -3.806026 89.080242 17.026162 -16.610716 -3.600029 0.000287 -0.003501 92.644003 6.803562 -6.760634 -2.100000 0.000325 -0.005487 95.070653 3.259576 -3.330089 -2.115770 -0.000055 -0.003687 0.000003 0.000003 -0.000006 4.570446 11.014691 -2.160851 -0.000018 0.000010 -0.000021 10.592357 -0.524541 -2.232273 71.496672 14.357756 -10.361505 27.841850 0.000128 -0.000235 106.962067 -63.748922 80.045186 28.328817 -0.000028 0.000017 0.000020 -0.000088 -0.000000 2.466103 -1.576160 2.681894 -23.055556 157.651189 -42.871513 3.217806 -1.871740 1.916377 160.725621 -29.810480 8.442822 2.656112 -1.528634 1.514466 143.047234 -26.789662 48.962839 2.020895 -1.154072 1.115148 0.000000 0.000003 0.000004 9.109366 -0.517853 2.259727 87.581747 -17.477401 16.753313 3.700047 0.000181 -0.000485 85.606620 -11.941707 11.080618 2.850057 0.000210 0.000197 84.550242 -9.494013 8.633636 2.774855 -0.000032 -0.000026 0.000001 0.000000 0.000000 9.533453 0.000211 -0.000087 88.181929 -16.387014 15.873129 3.700055 0.000196 -0.000371 90.554293 -10.472761 10.571346 2.950035 0.000198 -0.000206 90.675337 -10.813574 10.943925 2.952855 -0.000029 0.000075 0.000001 -0.000002 0.000001 9.104592 -0.042846 -1.865228 88.119310 -15.822444 15.319477 3.150049 0.000214 -0.000106 92.945535 -11.015540 11.594942 2.950016 0.000206 -0.000080 94.148755 -10.010943 10.760983 2.644334 0.000019 0.000057 0.000001 0.000002 -0.000000 8.077853 -0.486710 -3.806399 82.988998 -17.776416 16.279380 3.600003 0.000199 0.014549 84.186801 -15.184301 14.202283 2.100040 0.000205 0.007552 86.455496 -11.325548 11.099724 2.125492 -0.000002 0.007516 0.000003 0.000001 -0.000001 -8.207786 -6.751667 -1.599560 -0.077001 -0.000003 0.000080 -0.000002 -44.370110 0.345938 0.153719 -0.000000 -0.000000 0.000000 -44.423679 -3.043532 -0.076700 0.000000 -0.000002 -0.000006 -8.728667 10.710559 -0.000009 -0.000000 -0.000000 -0.000001 -0.000679 9.278123 0.000000 -0.000000 -0.000000 8.207792 -6.751710 -1.599556 -0.074518 -0.000003 0.000081 -0.000002 -44.370014 0.346960 0.148822 0.000002 0.000000 -0.000001 -44.423664 -3.044403 -0.074314 0.000000 -0.000002 -0.000004 -8.728671 10.710558 0.000007 -0.000000 -0.000000 0.000000 -0.000680 9.278137 -0.000000 0.000000 -0.000001 
0.000006 104.270477 1.554256 0.000010 0.000003 -0.000113 -0.000005 10.181587 0.131522 0.000001 -0.000003 0.000084 -0.000000 9.893967 -1.470711 0.000001 0.000000 -0.000000 -0.000000 9.220802 -1.370642 0.000000 -0.000000 -0.000000 0.000001 16.740433 -2.049030 0.000000 -0.000000 -0.000000 0.000000 9.617859 1.685014 0.000000 0.000000 0.000000 0.000002 22.037384 7.501101 0.000000 -0.000000 0.000000 -4.569968 11.014880 -2.160881 0.000008 0.000001 -0.000038 -10.592878 -0.524704 -2.231994 71.228949 14.623510 -10.502732 -27.841539 0.000023 0.000534 120.622520 64.094044 -95.349680 -28.328827 0.000006 0.000025 -0.000314 -0.000044 0.000006 -2.464522 -1.574051 2.682396 -5.260760 -150.490528 66.112379 -3.215213 -1.872496 1.924617 150.962070 36.765368 42.914881 -2.654946 -1.527915 1.513100 158.524196 23.942617 -40.311039 -2.018833 -1.152002 1.108068 0.000001 0.000003 0.000002 -9.108372 -0.517559 2.260138 103.193162 16.631482 -20.953740 -3.700081 0.000306 0.001546 101.204798 14.458115 -17.529448 -2.850102 0.000369 -0.000251 99.159423 10.594247 -12.424829 -2.772159 0.000003 -0.000021 0.000002 -0.000000 0.000001 -9.532574 0.000286 0.000267 100.807554 13.258376 -16.162838 -3.700069 0.000331 0.003993 100.224659 10.489980 -12.425253 -2.950064 0.000348 -0.001784 98.252025 10.180913 -11.745563 -2.946626 -0.000015 -0.000157 0.000001 -0.000000 0.000000 -9.103677 -0.042744 -1.864854 98.812026 13.356898 -15.511628 -3.379305 0.000334 -0.000766 99.444269 9.192826 -10.859525 -2.889775 0.000339 0.000667 98.810960 7.513263 -8.816569 -2.638801 -0.000016 0.000947 -0.000001 -0.000001 -0.000000 -8.076732 -0.486376 -3.806004 92.386826 14.477356 -14.933544 -3.600057 0.000294 -0.003499 94.738918 7.513759 -7.779623 -2.100012 0.000327 -0.005479 93.681208 4.265632 -4.319365 -2.115778 -0.000037 -0.003674 0.000003 -0.000001 -0.000005 4.570446 11.014691 -2.160851 -0.000018 0.000010 -0.000021 10.592355 -0.524547 -2.232270 70.663635 15.344655 -10.909766 27.841839 0.000107 -0.000219 108.563678 -64.260079 82.268829 28.328819 -0.000044 0.000024 0.000021 -0.000089 -0.000001 2.466217 -1.576132 2.681862 -2.733080 158.538390 -77.077804 3.217854 -1.871823 1.916393 162.001828 -24.853575 30.352616 2.656111 -1.528649 1.514443 142.273646 -26.951303 50.050673 2.020890 -1.154078 1.115158 -0.000000 0.000003 0.000006 9.109398 -0.517846 2.259754 91.689259 -19.511294 20.070359 3.700049 0.000189 -0.000472 89.769921 -12.910785 12.876299 2.850032 0.000221 0.000190 87.854463 -9.800408 9.440569 2.774880 -0.000031 -0.000037 -0.000001 0.000000 -0.000000 9.533485 0.000207 -0.000067 89.894189 -19.170031 19.126220 3.700040 0.000196 -0.000390 91.755450 -11.476500 11.828393 2.950047 0.000193 -0.000206 91.929770 -10.415480 10.773227 2.952869 -0.000034 0.000067 -0.000000 -0.000000 0.000002 9.104595 -0.042837 -1.865225 91.100879 -18.358777 18.710729 3.150050 0.000219 -0.000094 93.734887 -12.417922 13.249718 2.950036 0.000200 -0.000070 94.225239 -9.798991 10.547386 2.644330 0.000026 0.000061 -0.000001 -0.000002 -0.000002 8.077851 -0.486712 -3.806406 85.560202 -19.854607 18.959989 3.600015 0.000175 0.014592 85.164987 -17.030867 16.156218 2.100061 0.000191 0.007537 86.604060 -12.091268 11.854893 2.125501 -0.000001 0.007515 0.000003 0.000003 0.000001 -8.207786 -6.751667 -1.599560 -0.077001 -0.000003 0.000080 -0.000002 -44.370110 0.345938 0.153719 -0.000000 -0.000000 0.000000 -44.423679 -3.043532 -0.076700 0.000000 -0.000002 -0.000006 -8.728667 10.710559 -0.000009 -0.000000 -0.000000 -0.000001 -0.000679 9.278123 0.000000 -0.000000 -0.000000 8.207792 -6.751710 -1.599556 -0.074518 -0.000003 0.000081 -0.000002 -44.370014 0.346960 0.148822 0.000002 0.000000 -0.000001 -44.423664 -3.044403 -0.074314 0.000000 -0.000002 -0.000004 -8.728671 10.710558 0.000007 -0.000000 -0.000000 0.000000 -0.000680 9.278137 -0.000000 0.000000 -0.000001 
